<svg width="204" height="141" viewBox="0 0 204 141" fill="none" xmlns="http://www.w3.org/2000/svg">
<rect x="0.5" y="0.5" width="203" height="140" stroke="#ABB2BF"/>
<path d="M24.624 20.936L25.248 32H23.296L23.088 26.904C23.072 26.4773 23.0613 26.0827 23.056 25.72C23.056 25.352 23.0587 25.0053 23.064 24.68C23.0693 24.3493 23.0773 24.032 23.088 23.728C23.104 23.424 23.1227 23.1253 23.144 22.832L21.68 30.08H19.904L18.336 22.832C18.3573 23.1147 18.376 23.4107 18.392 23.72C18.408 24.0293 18.4187 24.352 18.424 24.688C18.4347 25.024 18.44 25.3787 18.44 25.752C18.4453 26.1253 18.44 26.5147 18.424 26.92L18.272 32H16.352L16.976 20.936H19.408L20.832 28.24L22.192 20.936H24.624ZM28.6818 28.408C28.7244 28.936 28.8444 29.3653 29.0418 29.696C29.2444 30.0267 29.5031 30.2693 29.8177 30.424C30.1324 30.5787 30.4818 30.656 30.8658 30.656C31.2711 30.656 31.6524 30.592 32.0098 30.464C32.3671 30.336 32.7191 30.1573 33.0658 29.928L33.9458 31.136C33.5511 31.4667 33.0791 31.7333 32.5298 31.936C31.9858 32.1387 31.3858 32.24 30.7298 32.24C29.8124 32.24 29.0391 32.0507 28.4098 31.672C27.7858 31.2933 27.3138 30.768 26.9938 30.096C26.6738 29.424 26.5138 28.6507 26.5138 27.776C26.5138 26.9333 26.6711 26.1733 26.9858 25.496C27.3004 24.8187 27.7538 24.2827 28.3458 23.888C28.9378 23.488 29.6524 23.288 30.4898 23.288C31.2684 23.288 31.9404 23.4587 32.5058 23.8C33.0711 24.1413 33.5084 24.632 33.8177 25.272C34.1271 25.9067 34.2818 26.672 34.2818 27.568C34.2818 27.712 34.2764 27.8587 34.2658 28.008C34.2604 28.1573 34.2524 28.2907 34.2418 28.408H28.6818ZM30.4978 24.776C29.9858 24.776 29.5644 24.96 29.2338 25.328C28.9084 25.6907 28.7164 26.2667 28.6578 27.056H32.2258C32.2151 26.3413 32.0658 25.784 31.7778 25.384C31.4951 24.9787 31.0684 24.776 30.4978 24.776ZM39.6995 30.68C40.1955 30.68 40.5928 30.5947 40.8915 30.424C41.1955 30.248 41.3475 30.0027 41.3475 29.688C41.3475 29.48 41.2968 29.304 41.1955 29.16C41.0995 29.016 40.9075 28.8827 40.6195 28.76C40.3315 28.632 39.8995 28.4907 39.3235 28.336C38.7795 28.1973 38.3022 28.0267 37.8915 27.824C37.4862 27.616 37.1688 27.3493 36.9395 27.024C36.7155 26.6987 36.6035 26.288 36.6035 25.792C36.6035 25.296 36.7422 24.8613 37.0195 24.488C37.2968 24.1093 37.6968 23.816 38.2195 23.608C38.7475 23.3947 39.3822 23.288 40.1235 23.288C40.8488 23.288 41.4835 23.384 42.0275 23.576C42.5715 23.7627 43.0382 23.9973 43.4275 24.28L42.5635 25.568C42.2222 25.3493 41.8515 25.1733 41.4515 25.04C41.0568 24.9013 40.6302 24.832 40.1715 24.832C39.6755 24.832 39.3128 24.904 39.0835 25.048C38.8595 25.192 38.7475 25.392 38.7475 25.648C38.7475 25.8293 38.8035 25.984 38.9155 26.112C39.0328 26.2347 39.2408 26.3547 39.5395 26.472C39.8435 26.584 40.2755 26.72 40.8355 26.88C41.3848 27.0293 41.8622 27.2053 42.2675 27.408C42.6782 27.6107 42.9955 27.88 43.2195 28.216C43.4435 28.552 43.5555 28.992 43.5555 29.536C43.5555 30.1493 43.3768 30.656 43.0195 31.056C42.6622 31.456 42.1902 31.7547 41.6035 31.952C41.0222 32.144 40.3902 32.24 39.7075 32.24C38.9075 32.24 38.2088 32.1253 37.6115 31.896C37.0142 31.6667 36.5075 31.3707 36.0915 31.008L37.1875 29.776C37.5182 30.0373 37.8942 30.2533 38.3155 30.424C38.7422 30.5947 39.2035 30.68 39.6995 30.68ZM49.2933 30.68C49.7893 30.68 50.1866 30.5947 50.4853 30.424C50.7893 30.248 50.9413 30.0027 50.9413 29.688C50.9413 29.48 50.8906 29.304 50.7893 29.16C50.6933 29.016 50.5013 28.8827 50.2133 28.76C49.9253 28.632 49.4933 28.4907 48.9173 28.336C48.3733 28.1973 47.8959 28.0267 47.4853 27.824C47.0799 27.616 46.7626 27.3493 46.5333 27.024C46.3093 26.6987 46.1973 26.288 46.1973 25.792C46.1973 25.296 46.3359 24.8613 46.6133 24.488C46.8906 24.1093 47.2906 23.816 47.8133 23.608C48.3413 23.3947 48.9759 23.288 49.7173 23.288C50.4426 23.288 51.0773 23.384 51.6213 23.576C52.1653 23.7627 52.6319 23.9973 53.0213 24.28L52.1573 25.568C51.8159 25.3493 51.4453 25.1733 51.0453 25.04C50.6506 24.9013 50.2239 24.832 49.7653 24.832C49.2693 24.832 48.9066 24.904 48.6773 25.048C48.4533 25.192 48.3413 25.392 48.3413 25.648C48.3413 25.8293 48.3973 25.984 48.5093 26.112C48.6266 26.2347 48.8346 26.3547 49.1333 26.472C49.4373 26.584 49.8693 26.72 50.4293 26.88C50.9786 27.0293 51.4559 27.2053 51.8613 27.408C52.2719 27.6107 52.5893 27.88 52.8133 28.216C53.0373 28.552 53.1493 28.992 53.1493 29.536C53.1493 30.1493 52.9706 30.656 52.6133 31.056C52.2559 31.456 51.7839 31.7547 51.1973 31.952C50.6159 32.144 49.9839 32.24 49.3012 32.24C48.5013 32.24 47.8026 32.1253 47.2053 31.896C46.6079 31.6667 46.1013 31.3707 45.6853 31.008L46.7812 29.776C47.1119 30.0373 47.4879 30.2533 47.9093 30.424C48.3359 30.5947 48.7973 30.68 49.2933 30.68ZM62.423 29.768C62.423 30.0933 62.471 30.3307 62.567 30.48C62.663 30.624 62.8177 30.7333 63.031 30.808L62.575 32.224C62.1217 32.176 61.735 32.064 61.415 31.888C61.1003 31.7067 60.8577 31.4373 60.687 31.08C60.367 31.4693 59.9617 31.76 59.471 31.952C58.9857 32.144 58.4763 32.24 57.943 32.24C57.079 32.24 56.3937 31.9947 55.887 31.504C55.3803 31.0133 55.127 30.376 55.127 29.592C55.127 28.6907 55.479 27.9973 56.183 27.512C56.8923 27.0213 57.895 26.776 59.191 26.776H60.375V26.32C60.375 25.8187 60.2203 25.456 59.911 25.232C59.6017 25.0027 59.1563 24.888 58.575 24.888C58.303 24.888 57.9617 24.9253 57.551 25C57.1457 25.0693 56.727 25.1787 56.295 25.328L55.791 23.88C56.3297 23.6773 56.871 23.528 57.415 23.432C57.9643 23.336 58.463 23.288 58.911 23.288C60.1003 23.288 60.983 23.5413 61.559 24.048C62.135 24.5493 62.423 25.2613 62.423 26.184V29.768ZM58.631 30.712C58.951 30.712 59.2737 30.6213 59.599 30.44C59.9297 30.2587 60.1883 30.0053 60.375 29.68V28.032H59.543C58.759 28.032 58.191 28.1573 57.839 28.408C57.4923 28.6587 57.319 29.0133 57.319 29.472C57.319 29.8667 57.431 30.1733 57.655 30.392C57.879 30.6053 58.2043 30.712 58.631 30.712ZM72.5608 22.336L73.0888 23.984C72.7688 24.096 72.4088 24.176 72.0087 24.224C71.6088 24.2667 71.1501 24.288 70.6328 24.288C71.1501 24.512 71.5421 24.7973 71.8088 25.144C72.0808 25.4853 72.2168 25.92 72.2168 26.448C72.2168 26.9973 72.0754 27.488 71.7928 27.92C71.5154 28.352 71.1181 28.6907 70.6008 28.936C70.0888 29.1813 69.4781 29.304 68.7688 29.304C68.5501 29.304 68.3554 29.2933 68.1848 29.272C68.0141 29.2507 67.8488 29.2213 67.6888 29.184C67.5821 29.2427 67.4994 29.328 67.4408 29.44C67.3821 29.552 67.3528 29.6667 67.3528 29.784C67.3528 29.944 67.4141 30.0827 67.5368 30.2C67.6648 30.312 67.9368 30.368 68.3528 30.368H69.7928C70.4168 30.368 70.9634 30.4747 71.4328 30.688C71.9074 30.896 72.2754 31.1787 72.5368 31.536C72.8034 31.8933 72.9368 32.304 72.9368 32.768C72.9368 33.6213 72.5661 34.288 71.8248 34.768C71.0834 35.248 70.0008 35.488 68.5768 35.488C67.5581 35.488 66.7634 35.384 66.1928 35.176C65.6274 34.968 65.2301 34.664 65.0008 34.264C64.7714 33.8693 64.6568 33.392 64.6568 32.832H66.5368C66.5368 33.104 66.5901 33.328 66.6968 33.504C66.8088 33.68 67.0141 33.8107 67.3128 33.896C67.6168 33.9813 68.0514 34.024 68.6168 34.024C69.1821 34.024 69.6248 33.9787 69.9448 33.888C70.2701 33.7973 70.4994 33.6667 70.6328 33.496C70.7661 33.3307 70.8328 33.136 70.8328 32.912C70.8328 32.608 70.7048 32.3707 70.4488 32.2C70.1928 32.0293 69.8301 31.944 69.3608 31.944H67.9608C67.1074 31.944 66.4861 31.7787 66.0968 31.448C65.7074 31.112 65.5128 30.7253 65.5128 30.288C65.5128 29.9893 65.5928 29.704 65.7528 29.432C65.9181 29.1547 66.1528 28.92 66.4568 28.728C65.9341 28.4507 65.5554 28.12 65.3208 27.736C65.0914 27.3467 64.9768 26.8773 64.9768 26.328C64.9768 25.7147 65.1314 25.1813 65.4408 24.728C65.7501 24.2747 66.1794 23.9227 66.7288 23.672C67.2781 23.4213 67.9101 23.296 68.6248 23.296C69.2808 23.3013 69.8381 23.2613 70.2968 23.176C70.7608 23.0907 71.1688 22.9733 71.5208 22.824C71.8781 22.6747 72.2248 22.512 72.5608 22.336ZM68.6648 24.704C68.1634 24.704 67.7794 24.8507 67.5128 25.144C67.2514 25.4373 67.1208 25.8267 67.1208 26.312C67.1208 26.8133 67.2568 27.2107 67.5288 27.504C67.8008 27.7973 68.1821 27.944 68.6727 27.944C69.1581 27.944 69.5261 27.8027 69.7768 27.52C70.0328 27.232 70.1608 26.8213 70.1608 26.288C70.1608 25.7547 70.0328 25.3573 69.7768 25.096C69.5261 24.8347 69.1554 24.704 68.6648 24.704ZM76.6505 28.408C76.6932 28.936 76.8132 29.3653 77.0105 29.696C77.2132 30.0267 77.4718 30.2693 77.7865 30.424C78.1012 30.5787 78.4505 30.656 78.8345 30.656C79.2398 30.656 79.6212 30.592 79.9785 30.464C80.3358 30.336 80.6878 30.1573 81.0345 29.928L81.9145 31.136C81.5198 31.4667 81.0478 31.7333 80.4985 31.936C79.9545 32.1387 79.3545 32.24 78.6985 32.24C77.7812 32.24 77.0078 32.0507 76.3785 31.672C75.7545 31.2933 75.2825 30.768 74.9625 30.096C74.6425 29.424 74.4825 28.6507 74.4825 27.776C74.4825 26.9333 74.6398 26.1733 74.9545 25.496C75.2692 24.8187 75.7225 24.2827 76.3145 23.888C76.9065 23.488 77.6212 23.288 78.4585 23.288C79.2372 23.288 79.9092 23.4587 80.4745 23.8C81.0398 24.1413 81.4772 24.632 81.7865 25.272C82.0958 25.9067 82.2505 26.672 82.2505 27.568C82.2505 27.712 82.2452 27.8587 82.2345 28.008C82.2292 28.1573 82.2212 28.2907 82.2105 28.408H76.6505ZM78.4665 24.776C77.9545 24.776 77.5332 24.96 77.2025 25.328C76.8772 25.6907 76.6852 26.2667 76.6265 27.056H80.1945C80.1838 26.3413 80.0345 25.784 79.7465 25.384C79.4638 24.9787 79.0372 24.776 78.4665 24.776ZM100.062 23.288C100.425 23.288 100.734 23.3653 100.99 23.52C101.246 23.6693 101.443 23.9227 101.582 24.28C101.721 24.632 101.79 25.112 101.79 25.72V32H99.95V25.984C99.95 25.6 99.918 25.328 99.854 25.168C99.7953 25.008 99.6593 24.928 99.446 24.928C99.27 24.928 99.0913 24.9813 98.91 25.088C98.734 25.1893 98.55 25.3733 98.358 25.64V32H96.766V25.984C96.766 25.6 96.734 25.328 96.67 25.168C96.6113 25.008 96.4753 24.928 96.262 24.928C96.0807 24.928 95.902 24.9813 95.726 25.088C95.55 25.1893 95.366 25.3733 95.174 25.64V32H93.31V23.528H94.886L95.022 24.408C95.2727 24.056 95.5367 23.7813 95.814 23.584C96.0913 23.3867 96.4247 23.288 96.814 23.288C97.134 23.288 97.4167 23.368 97.662 23.528C97.9127 23.6827 98.0913 23.9493 98.198 24.328C98.4433 24.0187 98.718 23.768 99.022 23.576C99.326 23.384 99.6727 23.288 100.062 23.288ZM105.432 28.408C105.474 28.936 105.594 29.3653 105.792 29.696C105.994 30.0267 106.253 30.2693 106.568 30.424C106.882 30.5787 107.232 30.656 107.616 30.656C108.021 30.656 108.402 30.592 108.76 30.464C109.117 30.336 109.469 30.1573 109.816 29.928L110.696 31.136C110.301 31.4667 109.829 31.7333 109.28 31.936C108.736 32.1387 108.136 32.24 107.48 32.24C106.562 32.24 105.789 32.0507 105.16 31.672C104.536 31.2933 104.064 30.768 103.744 30.096C103.424 29.424 103.264 28.6507 103.264 27.776C103.264 26.9333 103.421 26.1733 103.736 25.496C104.05 24.8187 104.504 24.2827 105.096 23.888C105.688 23.488 106.402 23.288 107.24 23.288C108.018 23.288 108.69 23.4587 109.256 23.8C109.821 24.1413 110.258 24.632 110.568 25.272C110.877 25.9067 111.032 26.672 111.032 27.568C111.032 27.712 111.026 27.8587 111.016 28.008C111.01 28.1573 111.002 28.2907 110.992 28.408H105.432ZM107.248 24.776C106.736 24.776 106.314 24.96 105.984 25.328C105.658 25.6907 105.466 26.2667 105.408 27.056H108.976C108.965 26.3413 108.816 25.784 108.528 25.384C108.245 24.9787 107.818 24.776 107.248 24.776ZM124.931 19.944V24.48C125.283 24.08 125.678 23.7813 126.115 23.584C126.558 23.3867 127.019 23.288 127.499 23.288C128.278 23.288 128.862 23.5093 129.251 23.952C129.646 24.3893 129.843 25.0053 129.843 25.8V32H127.731V26.272C127.731 25.76 127.651 25.3973 127.491 25.184C127.337 24.9707 127.07 24.864 126.691 24.864C126.467 24.864 126.249 24.9173 126.035 25.024C125.827 25.1253 125.63 25.264 125.443 25.44C125.262 25.616 125.091 25.8133 124.931 26.032V32H122.819V20.152L124.931 19.944ZM134.213 28.408C134.256 28.936 134.376 29.3653 134.573 29.696C134.776 30.0267 135.034 30.2693 135.349 30.424C135.664 30.5787 136.013 30.656 136.397 30.656C136.802 30.656 137.184 30.592 137.541 30.464C137.898 30.336 138.25 30.1573 138.597 29.928L139.477 31.136C139.082 31.4667 138.61 31.7333 138.061 31.936C137.517 32.1387 136.917 32.24 136.261 32.24C135.344 32.24 134.57 32.0507 133.941 31.672C133.317 31.2933 132.845 30.768 132.525 30.096C132.205 29.424 132.045 28.6507 132.045 27.776C132.045 26.9333 132.202 26.1733 132.517 25.496C132.832 24.8187 133.285 24.2827 133.877 23.888C134.469 23.488 135.184 23.288 136.021 23.288C136.8 23.288 137.472 23.4587 138.037 23.8C138.602 24.1413 139.04 24.632 139.349 25.272C139.658 25.9067 139.813 26.672 139.813 27.568C139.813 27.712 139.808 27.8587 139.797 28.008C139.792 28.1573 139.784 28.2907 139.773 28.408H134.213ZM136.029 24.776C135.517 24.776 135.096 24.96 134.765 25.328C134.44 25.6907 134.248 26.2667 134.189 27.056H137.757C137.746 26.3413 137.597 25.784 137.309 25.384C137.026 24.9787 136.6 24.776 136.029 24.776ZM142.087 32V30.536H143.279V24.984H142.087V23.528H144.887L145.279 25.472C145.588 24.752 145.977 24.2107 146.447 23.848C146.916 23.48 147.505 23.296 148.215 23.296C148.487 23.296 148.727 23.3173 148.935 23.36C149.148 23.4027 149.351 23.4587 149.543 23.528L148.911 25.304C148.745 25.2613 148.588 25.2293 148.439 25.208C148.289 25.1813 148.121 25.168 147.935 25.168C147.348 25.168 146.836 25.3973 146.399 25.856C145.967 26.3093 145.631 26.9253 145.391 27.704V30.536H147.079V32H142.087ZM147.759 26.832V24.584L148.047 23.528H149.543L149.167 26.832H147.759ZM153.401 28.408C153.443 28.936 153.563 29.3653 153.761 29.696C153.963 30.0267 154.222 30.2693 154.536 30.424C154.851 30.5787 155.201 30.656 155.585 30.656C155.99 30.656 156.371 30.592 156.729 30.464C157.086 30.336 157.438 30.1573 157.785 29.928L158.665 31.136C158.27 31.4667 157.798 31.7333 157.249 31.936C156.705 32.1387 156.105 32.24 155.449 32.24C154.531 32.24 153.758 32.0507 153.129 31.672C152.505 31.2933 152.033 30.768 151.713 30.096C151.393 29.424 151.233 28.6507 151.233 27.776C151.233 26.9333 151.39 26.1733 151.705 25.496C152.019 24.8187 152.473 24.2827 153.065 23.888C153.657 23.488 154.371 23.288 155.209 23.288C155.987 23.288 156.659 23.4587 157.225 23.8C157.79 24.1413 158.227 24.632 158.536 25.272C158.846 25.9067 159.001 26.672 159.001 27.568C159.001 27.712 158.995 27.8587 158.985 28.008C158.979 28.1573 158.971 28.2907 158.961 28.408H153.401ZM155.217 24.776C154.705 24.776 154.283 24.96 153.953 25.328C153.627 25.6907 153.435 26.2667 153.377 27.056H156.945C156.934 26.3413 156.785 25.784 156.497 25.384C156.214 24.9787 155.787 24.776 155.217 24.776Z" fill="white"/>
<path d="M40.1641 60.6591C38.543 59.8783 36.8325 59.321 35.0751 59.0011C35.0592 58.9983 35.0428 59.0008 35.0283 59.0081C35.0137 59.0154 35.0017 59.0273 34.9938 59.0421C34.7735 59.4521 34.5298 59.9883 34.3595 60.4082C32.4651 60.1064 30.5383 60.1064 28.6439 60.4082C28.4539 59.9405 28.239 59.4844 28.0002 59.0421C27.9922 59.0275 27.9801 59.0157 27.9656 59.0084C27.9511 59.0011 27.9348 58.9986 27.9189 59.0011C26.1611 59.3193 24.4502 59.8768 22.8299 60.6591C22.816 60.6646 22.8044 60.675 22.7971 60.6886C19.5565 65.7706 18.6675 70.7279 19.1034 75.623C19.105 75.6459 19.119 75.6689 19.1362 75.6836C21.0232 77.1507 23.134 78.2708 25.3783 78.9962C25.3942 79.0014 25.4112 79.0013 25.4269 78.9957C25.4427 78.99 25.4563 78.9793 25.4658 78.965C25.9471 78.2763 26.3752 77.5498 26.7439 76.7856C26.7516 76.7699 26.7543 76.752 26.7514 76.7345C26.7486 76.7171 26.7405 76.7011 26.7283 76.6889C26.7202 76.6809 26.7107 76.6747 26.7002 76.6708C26.027 76.3993 25.375 76.0731 24.7502 75.6951C24.7328 75.6847 24.7198 75.6677 24.714 75.6476C24.7081 75.6274 24.7099 75.6057 24.719 75.5869C24.7243 75.5747 24.7323 75.564 24.7424 75.5557C24.8736 75.4524 25.0049 75.3442 25.1299 75.236C25.1409 75.2266 25.1542 75.2206 25.1682 75.2186C25.1823 75.2166 25.1965 75.2186 25.2096 75.2245C29.3017 77.1858 33.7314 77.1858 37.7735 75.2245C37.787 75.2183 37.8018 75.2162 37.8164 75.2182C37.831 75.2202 37.8448 75.2264 37.8563 75.236C37.9813 75.3442 38.1126 75.4524 38.2438 75.5557C38.2544 75.5639 38.263 75.5747 38.2687 75.5872C38.2744 75.5996 38.277 75.6134 38.2764 75.6272C38.2758 75.641 38.2719 75.6544 38.2651 75.6663C38.2584 75.6781 38.2489 75.688 38.2376 75.6951C37.6142 76.0765 36.9614 76.4024 36.286 76.6692C36.2752 76.6733 36.2655 76.6798 36.2574 76.6883C36.2493 76.6968 36.243 76.7071 36.2391 76.7184C36.2355 76.7294 36.2341 76.741 36.2349 76.7525C36.2357 76.7641 36.2387 76.7754 36.2438 76.7856C36.6188 77.5482 37.0485 78.2763 37.5204 78.965C37.5299 78.9793 37.5435 78.99 37.5593 78.9957C37.575 79.0013 37.592 79.0014 37.6079 78.9962C39.856 78.2731 41.9701 77.1528 43.8594 75.6836C43.8688 75.6768 43.8767 75.6677 43.8824 75.6572C43.8881 75.6467 43.8914 75.635 43.8922 75.623C44.4141 69.9637 43.0188 65.0474 40.1954 60.6902C40.1925 60.683 40.1883 60.6765 40.1829 60.6712C40.1775 60.6658 40.1711 60.6617 40.1641 60.6591ZM27.3549 72.6417C26.1221 72.6417 25.108 71.4544 25.108 69.9982C25.108 68.5403 26.1033 67.353 27.3549 67.353C28.6158 67.353 29.6205 68.5502 29.6017 69.9982C29.6017 71.4544 28.6064 72.6417 27.3549 72.6417ZM35.661 72.6417C34.4298 72.6417 33.4142 71.4544 33.4142 69.9982C33.4142 68.5403 34.4095 67.353 35.661 67.353C36.922 67.353 37.9282 68.5502 37.9079 69.9982C37.9079 71.4544 36.922 72.6417 35.661 72.6417Z" fill="#ABB2BF"/>
<path d="M58.512 63.484L58.376 70.868H57.168L57.008 63.484H58.512ZM57.784 72.54C58.0933 72.54 58.3493 72.644 58.552 72.852C58.76 73.06 58.864 73.3107 58.864 73.604C58.864 73.9027 58.76 74.1587 58.552 74.372C58.3493 74.58 58.0933 74.684 57.784 74.684C57.48 74.684 57.2267 74.58 57.024 74.372C56.8213 74.1587 56.72 73.9027 56.72 73.604C56.72 73.3107 56.8213 73.06 57.024 72.852C57.2267 72.644 57.48 72.54 57.784 72.54ZM65.9938 64.62V68.332H70.0738V69.476H65.9938V73.388H71.0017V74.5H64.6018V63.484H70.8577L70.6978 64.62H65.9938ZM77.0755 62.684V72.42C77.0755 72.836 77.2035 73.132 77.4595 73.308C77.7208 73.4787 78.0568 73.564 78.4675 73.564C78.7235 73.564 78.9662 73.5373 79.1955 73.484C79.4248 73.4307 79.6542 73.3587 79.8835 73.268L80.2435 74.252C80.0142 74.364 79.7288 74.4627 79.3875 74.548C79.0515 74.6387 78.6702 74.684 78.2435 74.684C77.4968 74.684 76.8915 74.4787 76.4275 74.068C75.9635 73.652 75.7315 73.0787 75.7315 72.348V63.748H73.1475V62.684H77.0755ZM87.6533 66.076V73.436H90.0293V74.5H83.7093V73.436H86.3093V67.14H83.7893V66.076H87.6533ZM86.5813 62.132C86.8799 62.132 87.1173 62.2227 87.2933 62.404C87.4746 62.5853 87.5653 62.8067 87.5653 63.068C87.5653 63.34 87.4746 63.5693 87.2933 63.756C87.1173 63.9373 86.8799 64.028 86.5813 64.028C86.2986 64.028 86.0666 63.9373 85.8853 63.756C85.7039 63.5693 85.6133 63.34 85.6133 63.068C85.6133 62.8067 85.7039 62.5853 85.8853 62.404C86.0666 62.2227 86.2986 62.132 86.5813 62.132ZM99.015 72.66C99.015 72.996 99.071 73.2413 99.183 73.396C99.295 73.5507 99.4683 73.6653 99.703 73.74L99.375 74.684C99.0123 74.636 98.695 74.5213 98.423 74.34C98.151 74.1533 97.9537 73.8733 97.831 73.5C97.527 73.8893 97.1483 74.1853 96.695 74.388C96.2417 74.5853 95.7403 74.684 95.191 74.684C94.3483 74.684 93.6843 74.4467 93.199 73.972C92.7137 73.4973 92.471 72.868 92.471 72.084C92.471 71.2147 92.8097 70.548 93.487 70.084C94.1643 69.62 95.143 69.388 96.423 69.388H97.663V68.684C97.663 68.076 97.4843 67.6467 97.127 67.396C96.775 67.14 96.2843 67.012 95.655 67.012C95.3777 67.012 95.0523 67.0467 94.679 67.116C94.3057 67.18 93.9003 67.2893 93.463 67.444L93.111 66.428C93.6283 66.236 94.1137 66.1 94.567 66.02C95.0203 65.94 95.4523 65.9 95.863 65.9C96.9137 65.9 97.7003 66.1453 98.223 66.636C98.751 67.1213 99.015 67.7827 99.015 68.62V72.66ZM95.535 73.66C95.951 73.66 96.3483 73.556 96.727 73.348C97.1057 73.1347 97.4177 72.8413 97.663 72.468V70.3H96.447C95.519 70.3 94.863 70.46 94.479 70.78C94.1003 71.1 93.911 71.5293 93.911 72.068C93.911 72.5907 94.0443 72.988 94.311 73.26C94.583 73.5267 94.991 73.66 95.535 73.66ZM105.441 73.572C106.086 73.572 106.595 73.452 106.969 73.212C107.347 72.9667 107.537 72.6413 107.537 72.236C107.537 71.98 107.489 71.7587 107.393 71.572C107.302 71.3853 107.113 71.2173 106.825 71.068C106.537 70.9187 106.094 70.7693 105.497 70.62C104.915 70.476 104.409 70.3107 103.977 70.124C103.55 69.932 103.217 69.684 102.977 69.38C102.742 69.076 102.625 68.6813 102.625 68.196C102.625 67.7213 102.758 67.3133 103.025 66.972C103.297 66.6253 103.673 66.3613 104.153 66.18C104.633 65.9933 105.19 65.9 105.825 65.9C106.502 65.9 107.091 65.9907 107.593 66.172C108.099 66.348 108.529 66.5667 108.881 66.828L108.289 67.74C107.969 67.5213 107.617 67.3427 107.233 67.204C106.849 67.06 106.385 66.988 105.841 66.988C105.179 66.988 104.71 67.092 104.433 67.3C104.155 67.5027 104.017 67.7667 104.017 68.092C104.017 68.3373 104.083 68.5427 104.217 68.708C104.355 68.868 104.587 69.0147 104.913 69.148C105.238 69.276 105.686 69.4173 106.257 69.572C106.806 69.716 107.283 69.8893 107.689 70.092C108.099 70.2947 108.419 70.5613 108.649 70.892C108.878 71.2227 108.993 71.6493 108.993 72.172C108.993 72.7693 108.822 73.2547 108.481 73.628C108.139 73.996 107.697 74.2653 107.153 74.436C106.614 74.6013 106.043 74.684 105.441 74.684C104.678 74.684 104.027 74.5747 103.489 74.356C102.955 74.132 102.507 73.8627 102.145 73.548L102.913 72.66C103.243 72.932 103.622 73.1533 104.049 73.324C104.481 73.4893 104.945 73.572 105.441 73.572ZM117.899 67.204L117.427 70.748H118.723V71.788H117.275L116.939 74.5H115.787L116.147 71.788H113.819L113.467 74.5H112.315L112.674 71.788H111.411V70.748H112.811L113.299 67.204H112.003V66.156H113.435L113.787 63.484H114.939L114.555 66.156H116.907L117.259 63.484H118.411L118.035 66.156H119.315V67.204H117.899ZM113.955 70.748H116.283L116.771 67.204H114.427L113.955 70.748ZM124.452 63.308C125.146 63.308 125.743 63.4333 126.244 63.684C126.751 63.9293 127.143 64.2627 127.42 64.684C127.698 65.1 127.836 65.5587 127.836 66.06C127.836 66.5027 127.738 66.9053 127.54 67.268C127.343 67.6307 127.082 67.9293 126.756 68.164C126.431 68.3987 126.074 68.5533 125.684 68.628C126.116 68.66 126.522 68.7827 126.9 68.996C127.279 69.204 127.588 69.5027 127.828 69.892C128.068 70.276 128.188 70.7533 128.188 71.324C128.188 71.9587 128.028 72.532 127.708 73.044C127.388 73.5507 126.94 73.9507 126.364 74.244C125.794 74.5373 125.127 74.684 124.364 74.684C123.751 74.684 123.138 74.5667 122.524 74.332C121.916 74.0973 121.402 73.724 120.98 73.212L121.884 72.476C122.199 72.844 122.572 73.1187 123.004 73.3C123.442 73.4813 123.884 73.572 124.332 73.572C125.1 73.572 125.7 73.372 126.132 72.972C126.564 72.5667 126.78 72.0173 126.78 71.324C126.78 70.8013 126.679 70.388 126.476 70.084C126.279 69.78 126.01 69.564 125.668 69.436C125.327 69.3027 124.938 69.236 124.5 69.236H123.572L123.74 68.172H124.388C124.746 68.172 125.082 68.1053 125.396 67.972C125.716 67.8333 125.978 67.62 126.18 67.332C126.383 67.044 126.484 66.684 126.484 66.252C126.484 65.644 126.282 65.18 125.876 64.86C125.471 64.54 124.98 64.38 124.404 64.38C123.924 64.38 123.506 64.4653 123.148 64.636C122.791 64.8013 122.431 65.0547 122.068 65.396L121.324 64.572C121.794 64.1293 122.292 63.8093 122.82 63.612C123.348 63.4093 123.892 63.308 124.452 63.308ZM137.542 63.484L137.342 64.556H132.99V68.028C133.326 67.8467 133.643 67.724 133.942 67.66C134.246 67.5907 134.563 67.556 134.894 67.556C135.491 67.556 136.017 67.692 136.47 67.964C136.923 68.2307 137.275 68.6227 137.526 69.14C137.777 69.6573 137.902 70.2813 137.902 71.012C137.902 71.7427 137.747 72.3853 137.438 72.94C137.134 73.4947 136.705 73.924 136.15 74.228C135.595 74.532 134.937 74.684 134.174 74.684C133.513 74.684 132.921 74.5667 132.398 74.332C131.881 74.0973 131.409 73.772 130.982 73.356L131.814 72.556C132.15 72.8973 132.51 73.1533 132.894 73.324C133.283 73.4893 133.715 73.572 134.19 73.572C134.915 73.572 135.481 73.3533 135.886 72.916C136.291 72.4733 136.494 71.8253 136.494 70.972C136.494 70.38 136.406 69.9133 136.23 69.572C136.054 69.2307 135.814 68.988 135.51 68.844C135.211 68.6947 134.878 68.62 134.51 68.62C134.185 68.62 133.897 68.652 133.646 68.716C133.395 68.7747 133.11 68.8653 132.79 68.988H131.71V63.484H137.542ZM145.32 63.484V74.18H143.976V64.94L141.448 66.476L140.864 65.516L144.144 63.484H145.32ZM147.624 73.404V74.5H141.264V73.404H147.624ZM153.57 63.324C154.37 63.324 155.036 63.508 155.57 63.876C156.103 64.244 156.5 64.764 156.762 65.436C157.028 66.108 157.161 66.9053 157.161 67.828C157.161 68.9373 157.047 69.8787 156.818 70.652C156.594 71.42 156.244 72.0627 155.77 72.58C155.295 73.0973 154.687 73.532 153.946 73.884C153.204 74.236 152.319 74.5533 151.289 74.836L150.978 73.812C152.023 73.5187 152.892 73.172 153.586 72.772C154.279 72.3667 154.804 71.8573 155.162 71.244C155.519 70.6253 155.711 69.8573 155.738 68.94L155.762 68.172C155.767 67.2547 155.69 66.5213 155.53 65.972C155.375 65.4173 155.135 65.02 154.81 64.78C154.49 64.5347 154.076 64.412 153.57 64.412C152.855 64.412 152.314 64.6307 151.946 65.068C151.578 65.5053 151.394 66.1453 151.394 66.988C151.394 67.8253 151.57 68.436 151.922 68.82C152.279 69.1987 152.772 69.388 153.402 69.388C153.951 69.388 154.426 69.2333 154.826 68.924C155.226 68.6147 155.604 68.1987 155.962 67.676L155.954 68.844C155.628 69.3133 155.236 69.7 154.778 70.004C154.319 70.308 153.778 70.46 153.154 70.46C152.54 70.46 151.996 70.3187 151.522 70.036C151.047 69.7533 150.674 69.3507 150.402 68.828C150.135 68.3053 150.002 67.676 150.002 66.94C150.002 66.156 150.162 65.4947 150.482 64.956C150.802 64.4173 151.231 64.012 151.77 63.74C152.308 63.4627 152.908 63.324 153.57 63.324Z" fill="#ABB2BF"/>
<path d="M21.0719 102.203C21.2168 101.577 21.5731 101.018 22.0823 100.618C22.5916 100.218 23.2236 100 23.875 100H41.125C41.7764 100 42.4084 100.218 42.9177 100.618C43.4269 101.018 43.7832 101.577 43.9281 102.203L32.5 109.086L21.0719 102.203ZM21 103.821V113.885L29.3418 108.844L21 103.821ZM30.7189 109.676L21.2746 115.381C21.5079 115.866 21.8762 116.275 22.3366 116.562C22.7969 116.849 23.3304 117.001 23.875 117H41.125C41.6695 117 42.2028 116.848 42.6629 116.561C43.123 116.274 43.491 115.864 43.724 115.379L34.2796 109.674L32.5 110.747L30.7189 109.674V109.676ZM35.6582 108.846L44 113.885V103.821L35.6582 108.844V108.846Z" fill="#ABB2BF"/>
<path d="M55.664 110.764C55.6907 111.415 55.816 111.948 56.04 112.364C56.264 112.775 56.56 113.079 56.928 113.276C57.296 113.468 57.696 113.564 58.128 113.564C58.56 113.564 58.9493 113.5 59.296 113.372C59.648 113.244 60.008 113.055 60.376 112.804L61.008 113.692C60.6133 114.001 60.1627 114.244 59.656 114.42C59.1547 114.596 58.64 114.684 58.112 114.684C57.296 114.684 56.6 114.5 56.024 114.132C55.448 113.764 55.008 113.252 54.704 112.596C54.4053 111.935 54.256 111.169 54.256 110.3C54.256 109.447 54.408 108.689 54.712 108.028C55.016 107.367 55.4427 106.847 55.992 106.468C56.5413 106.089 57.1893 105.9 57.936 105.9C58.6453 105.9 59.256 106.068 59.768 106.404C60.28 106.735 60.672 107.209 60.944 107.828C61.2213 108.441 61.36 109.175 61.36 110.028C61.36 110.172 61.3573 110.308 61.352 110.436C61.3467 110.559 61.3387 110.668 61.328 110.764H55.664ZM57.952 107.004C57.328 107.004 56.8053 107.225 56.384 107.668C55.968 108.111 55.7307 108.796 55.672 109.724H60.064C60.048 108.823 59.8507 108.145 59.472 107.692C59.0933 107.233 58.5867 107.004 57.952 107.004ZM67.4818 102.684V112.42C67.4818 112.836 67.6098 113.132 67.8658 113.308C68.1271 113.479 68.4631 113.564 68.8738 113.564C69.1298 113.564 69.3724 113.537 69.6018 113.484C69.8311 113.431 70.0604 113.359 70.2898 113.268L70.6498 114.252C70.4204 114.364 70.1351 114.463 69.7938 114.548C69.4578 114.639 69.0764 114.684 68.6498 114.684C67.9031 114.684 67.2978 114.479 66.8338 114.068C66.3698 113.652 66.1378 113.079 66.1378 112.348V103.748H63.5538V102.684H67.4818ZM78.0595 106.076V113.436H80.4355V114.5H74.1155V113.436H76.7155V107.14H74.1955V106.076H78.0595ZM76.9875 102.132C77.2862 102.132 77.5235 102.223 77.6995 102.404C77.8808 102.585 77.9715 102.807 77.9715 103.068C77.9715 103.34 77.8808 103.569 77.6995 103.756C77.5235 103.937 77.2862 104.028 76.9875 104.028C76.7048 104.028 76.4728 103.937 76.2915 103.756C76.1102 103.569 76.0195 103.34 76.0195 103.068C76.0195 102.807 76.1102 102.585 76.2915 102.404C76.4728 102.223 76.7048 102.132 76.9875 102.132ZM89.4213 112.66C89.4213 112.996 89.4773 113.241 89.5893 113.396C89.7013 113.551 89.8746 113.665 90.1093 113.74L89.7812 114.684C89.4186 114.636 89.1013 114.521 88.8293 114.34C88.5573 114.153 88.3599 113.873 88.2373 113.5C87.9333 113.889 87.5546 114.185 87.1013 114.388C86.6479 114.585 86.1466 114.684 85.5973 114.684C84.7546 114.684 84.0906 114.447 83.6053 113.972C83.1199 113.497 82.8773 112.868 82.8773 112.084C82.8773 111.215 83.2159 110.548 83.8932 110.084C84.5706 109.62 85.5493 109.388 86.8293 109.388H88.0693V108.684C88.0693 108.076 87.8906 107.647 87.5333 107.396C87.1813 107.14 86.6906 107.012 86.0613 107.012C85.7839 107.012 85.4586 107.047 85.0853 107.116C84.7119 107.18 84.3066 107.289 83.8693 107.444L83.5173 106.428C84.0346 106.236 84.5199 106.1 84.9733 106.02C85.4266 105.94 85.8586 105.9 86.2693 105.9C87.3199 105.9 88.1066 106.145 88.6293 106.636C89.1573 107.121 89.4213 107.783 89.4213 108.62V112.66ZM85.9413 113.66C86.3573 113.66 86.7546 113.556 87.1333 113.348C87.5119 113.135 87.8239 112.841 88.0693 112.468V110.3H86.8533C85.9253 110.3 85.2693 110.46 84.8853 110.78C84.5066 111.1 84.3173 111.529 84.3173 112.068C84.3173 112.591 84.4506 112.988 84.7173 113.26C84.9893 113.527 85.3973 113.66 85.9413 113.66ZM95.847 113.572C96.4923 113.572 97.0017 113.452 97.375 113.212C97.7537 112.967 97.943 112.641 97.943 112.236C97.943 111.98 97.895 111.759 97.799 111.572C97.7083 111.385 97.519 111.217 97.231 111.068C96.943 110.919 96.5003 110.769 95.903 110.62C95.3217 110.476 94.815 110.311 94.383 110.124C93.9563 109.932 93.623 109.684 93.383 109.38C93.1483 109.076 93.031 108.681 93.031 108.196C93.031 107.721 93.1643 107.313 93.431 106.972C93.703 106.625 94.079 106.361 94.559 106.18C95.039 105.993 95.5963 105.9 96.231 105.9C96.9083 105.9 97.4977 105.991 97.999 106.172C98.5057 106.348 98.935 106.567 99.287 106.828L98.695 107.74C98.375 107.521 98.023 107.343 97.639 107.204C97.255 107.06 96.791 106.988 96.247 106.988C95.5857 106.988 95.1163 107.092 94.839 107.3C94.5617 107.503 94.423 107.767 94.423 108.092C94.423 108.337 94.4897 108.543 94.623 108.708C94.7617 108.868 94.9937 109.015 95.319 109.148C95.6443 109.276 96.0923 109.417 96.663 109.572C97.2123 109.716 97.6897 109.889 98.095 110.092C98.5057 110.295 98.8257 110.561 99.055 110.892C99.2843 111.223 99.399 111.649 99.399 112.172C99.399 112.769 99.2283 113.255 98.887 113.628C98.5457 113.996 98.103 114.265 97.559 114.436C97.0203 114.601 96.4497 114.684 95.847 114.684C95.0843 114.684 94.4337 114.575 93.895 114.356C93.3617 114.132 92.9137 113.863 92.551 113.548L93.319 112.66C93.6497 112.932 94.0283 113.153 94.455 113.324C94.887 113.489 95.351 113.572 95.847 113.572ZM105.505 103.308C106.331 103.308 107.027 103.433 107.593 103.684C108.163 103.929 108.627 104.268 108.985 104.7C109.347 105.132 109.625 105.633 109.817 106.204C110.014 106.769 110.15 107.372 110.225 108.012C110.299 108.647 110.337 109.292 110.337 109.948C110.337 111.292 110.273 112.409 110.145 113.3C110.022 114.185 109.793 114.847 109.457 115.284C109.121 115.727 108.63 115.948 107.985 115.948C107.654 115.948 107.369 115.868 107.129 115.708C106.889 115.548 106.691 115.345 106.537 115.1C106.382 114.86 106.27 114.612 106.201 114.356C106.131 114.095 106.099 113.868 106.105 113.676H106.041C105.945 113.921 105.806 114.164 105.625 114.404C105.449 114.639 105.217 114.833 104.929 114.988C104.641 115.148 104.283 115.228 103.857 115.228C103.275 115.228 102.806 115.071 102.449 114.756C102.097 114.441 101.841 114.007 101.681 113.452C101.521 112.897 101.441 112.268 101.441 111.564C101.441 110.172 101.718 109.137 102.273 108.46C102.827 107.777 103.595 107.436 104.577 107.436C104.95 107.436 105.307 107.476 105.649 107.556C105.99 107.636 106.385 107.796 106.833 108.036V112.764C106.833 113.34 106.883 113.78 106.985 114.084C107.086 114.383 107.222 114.588 107.393 114.7C107.563 114.812 107.753 114.868 107.961 114.868C108.211 114.868 108.406 114.743 108.545 114.492C108.683 114.241 108.782 113.892 108.841 113.444C108.899 112.996 108.934 112.476 108.945 111.884C108.955 111.287 108.961 110.647 108.961 109.964C108.961 109.201 108.918 108.489 108.833 107.828C108.747 107.161 108.585 106.577 108.345 106.076C108.105 105.575 107.758 105.183 107.305 104.9C106.851 104.617 106.257 104.476 105.521 104.476C105.003 104.476 104.438 104.572 103.825 104.764C103.217 104.951 102.571 105.345 101.889 105.948L101.121 105.052C101.835 104.428 102.566 103.983 103.313 103.716C104.065 103.444 104.795 103.308 105.505 103.308ZM104.641 108.428C103.91 108.428 103.411 108.692 103.145 109.22C102.878 109.748 102.745 110.529 102.745 111.564C102.745 112.087 102.782 112.548 102.857 112.948C102.937 113.343 103.07 113.655 103.257 113.884C103.443 114.108 103.697 114.22 104.017 114.22C104.39 114.22 104.683 114.135 104.897 113.964C105.115 113.793 105.281 113.599 105.393 113.38C105.51 113.156 105.601 112.967 105.665 112.812V108.668C105.499 108.583 105.334 108.521 105.169 108.484C105.009 108.447 104.833 108.428 104.641 108.428ZM113.227 110.764C113.253 111.415 113.379 111.948 113.603 112.364C113.827 112.775 114.123 113.079 114.491 113.276C114.859 113.468 115.259 113.564 115.691 113.564C116.123 113.564 116.512 113.5 116.859 113.372C117.211 113.244 117.571 113.055 117.939 112.804L118.571 113.692C118.176 114.001 117.725 114.244 117.219 114.42C116.717 114.596 116.203 114.684 115.675 114.684C114.859 114.684 114.163 114.5 113.587 114.132C113.011 113.764 112.571 113.252 112.267 112.596C111.968 111.935 111.819 111.169 111.819 110.3C111.819 109.447 111.971 108.689 112.275 108.028C112.579 107.367 113.005 106.847 113.555 106.468C114.104 106.089 114.752 105.9 115.499 105.9C116.208 105.9 116.819 106.068 117.331 106.404C117.843 106.735 118.235 107.209 118.507 107.828C118.784 108.441 118.923 109.175 118.923 110.028C118.923 110.172 118.92 110.308 118.915 110.436C118.909 110.559 118.901 110.668 118.891 110.764H113.227ZM115.515 107.004C114.891 107.004 114.368 107.225 113.947 107.668C113.531 108.111 113.293 108.796 113.235 109.724H117.627C117.611 108.823 117.413 108.145 117.035 107.692C116.656 107.233 116.149 107.004 115.515 107.004ZM125.044 102.684V112.42C125.044 112.836 125.172 113.132 125.428 113.308C125.69 113.479 126.026 113.564 126.436 113.564C126.692 113.564 126.935 113.537 127.164 113.484C127.394 113.431 127.623 113.359 127.852 113.268L128.212 114.252C127.983 114.364 127.698 114.463 127.356 114.548C127.02 114.639 126.639 114.684 126.212 114.684C125.466 114.684 124.86 114.479 124.396 114.068C123.932 113.652 123.7 113.079 123.7 112.348V103.748H121.116V102.684H125.044ZM135.622 106.076V113.436H137.998V114.5H131.678V113.436H134.278V107.14H131.758V106.076H135.622ZM134.55 102.132C134.849 102.132 135.086 102.223 135.262 102.404C135.443 102.585 135.534 102.807 135.534 103.068C135.534 103.34 135.443 103.569 135.262 103.756C135.086 103.937 134.849 104.028 134.55 104.028C134.267 104.028 134.035 103.937 133.854 103.756C133.673 103.569 133.582 103.34 133.582 103.068C133.582 102.807 133.673 102.585 133.854 102.404C134.035 102.223 134.267 102.132 134.55 102.132ZM146.984 112.66C146.984 112.996 147.04 113.241 147.152 113.396C147.264 113.551 147.437 113.665 147.672 113.74L147.344 114.684C146.981 114.636 146.664 114.521 146.392 114.34C146.12 114.153 145.922 113.873 145.8 113.5C145.496 113.889 145.117 114.185 144.664 114.388C144.21 114.585 143.709 114.684 143.16 114.684C142.317 114.684 141.653 114.447 141.168 113.972C140.682 113.497 140.44 112.868 140.44 112.084C140.44 111.215 140.778 110.548 141.456 110.084C142.133 109.62 143.112 109.388 144.392 109.388H145.632V108.684C145.632 108.076 145.453 107.647 145.096 107.396C144.744 107.14 144.253 107.012 143.624 107.012C143.346 107.012 143.021 107.047 142.648 107.116C142.274 107.18 141.869 107.289 141.432 107.444L141.08 106.428C141.597 106.236 142.082 106.1 142.536 106.02C142.989 105.94 143.421 105.9 143.832 105.9C144.882 105.9 145.669 106.145 146.192 106.636C146.72 107.121 146.984 107.783 146.984 108.62V112.66ZM143.504 113.66C143.92 113.66 144.317 113.556 144.696 113.348C145.074 113.135 145.386 112.841 145.632 112.468V110.3H144.416C143.488 110.3 142.832 110.46 142.448 110.78C142.069 111.1 141.88 111.529 141.88 112.068C141.88 112.591 142.013 112.988 142.28 113.26C142.552 113.527 142.96 113.66 143.504 113.66ZM153.41 113.572C154.055 113.572 154.564 113.452 154.938 113.212C155.316 112.967 155.506 112.641 155.506 112.236C155.506 111.98 155.458 111.759 155.362 111.572C155.271 111.385 155.082 111.217 154.794 111.068C154.506 110.919 154.063 110.769 153.466 110.62C152.884 110.476 152.378 110.311 151.946 110.124C151.519 109.932 151.186 109.684 150.946 109.38C150.711 109.076 150.594 108.681 150.594 108.196C150.594 107.721 150.727 107.313 150.993 106.972C151.266 106.625 151.642 106.361 152.122 106.18C152.602 105.993 153.159 105.9 153.794 105.9C154.471 105.9 155.06 105.991 155.562 106.172C156.068 106.348 156.498 106.567 156.85 106.828L156.258 107.74C155.938 107.521 155.586 107.343 155.202 107.204C154.818 107.06 154.354 106.988 153.81 106.988C153.148 106.988 152.679 107.092 152.402 107.3C152.124 107.503 151.986 107.767 151.986 108.092C151.986 108.337 152.052 108.543 152.186 108.708C152.324 108.868 152.556 109.015 152.882 109.148C153.207 109.276 153.655 109.417 154.226 109.572C154.775 109.716 155.252 109.889 155.658 110.092C156.068 110.295 156.388 110.561 156.618 110.892C156.847 111.223 156.962 111.649 156.962 112.172C156.962 112.769 156.791 113.255 156.45 113.628C156.108 113.996 155.666 114.265 155.122 114.436C154.583 114.601 154.012 114.684 153.41 114.684C152.647 114.684 151.996 114.575 151.458 114.356C150.924 114.132 150.476 113.863 150.113 113.548L150.882 112.66C151.212 112.932 151.591 113.153 152.018 113.324C152.45 113.489 152.914 113.572 153.41 113.572ZM161.915 113.268C161.915 113.007 161.977 112.772 162.099 112.564C162.222 112.351 162.387 112.183 162.595 112.06C162.809 111.932 163.049 111.868 163.315 111.868C163.587 111.868 163.83 111.932 164.043 112.06C164.257 112.183 164.425 112.351 164.547 112.564C164.67 112.772 164.731 113.007 164.731 113.268C164.731 113.529 164.67 113.769 164.547 113.988C164.425 114.201 164.257 114.372 164.043 114.5C163.83 114.623 163.587 114.684 163.315 114.684C163.049 114.684 162.809 114.623 162.595 114.5C162.387 114.372 162.222 114.201 162.099 113.988C161.977 113.769 161.915 113.529 161.915 113.268ZM175.285 105.9C175.557 105.9 175.816 105.959 176.061 106.076C176.312 106.193 176.517 106.42 176.677 106.756C176.837 107.092 176.917 107.583 176.917 108.228V114.5H175.669V108.444C175.669 107.916 175.637 107.535 175.573 107.3C175.509 107.065 175.325 106.948 175.021 106.948C174.77 106.948 174.52 107.028 174.269 107.188C174.024 107.343 173.784 107.599 173.549 107.956V114.5H172.293V108.444C172.293 107.916 172.261 107.535 172.197 107.3C172.133 107.065 171.949 106.948 171.645 106.948C171.384 106.948 171.13 107.028 170.885 107.188C170.645 107.343 170.408 107.599 170.173 107.956V114.5H168.933V106.076H169.989L170.069 107.052C170.298 106.727 170.554 106.455 170.837 106.236C171.125 106.012 171.48 105.9 171.901 105.9C172.221 105.9 172.522 105.977 172.805 106.132C173.088 106.281 173.296 106.575 173.429 107.012C173.658 106.681 173.917 106.415 174.205 106.212C174.493 106.004 174.853 105.9 175.285 105.9ZM180.383 110.764C180.409 111.415 180.535 111.948 180.759 112.364C180.983 112.775 181.279 113.079 181.647 113.276C182.015 113.468 182.415 113.564 182.847 113.564C183.279 113.564 183.668 113.5 184.015 113.372C184.367 113.244 184.727 113.055 185.095 112.804L185.727 113.692C185.332 114.001 184.881 114.244 184.375 114.42C183.873 114.596 183.359 114.684 182.831 114.684C182.015 114.684 181.319 114.5 180.743 114.132C180.167 113.764 179.727 113.252 179.423 112.596C179.124 111.935 178.975 111.169 178.975 110.3C178.975 109.447 179.127 108.689 179.431 108.028C179.735 107.367 180.161 106.847 180.711 106.468C181.26 106.089 181.908 105.9 182.655 105.9C183.364 105.9 183.975 106.068 184.487 106.404C184.999 106.735 185.391 107.209 185.663 107.828C185.94 108.441 186.079 109.175 186.079 110.028C186.079 110.172 186.076 110.308 186.071 110.436C186.065 110.559 186.057 110.668 186.047 110.764H180.383ZM182.671 107.004C182.047 107.004 181.524 107.225 181.103 107.668C180.687 108.111 180.449 108.796 180.391 109.724H184.783C184.767 108.823 184.569 108.145 184.191 107.692C183.812 107.233 183.305 107.004 182.671 107.004Z" fill="#ABB2BF"/>
</svg>
